<svg width="40" height="40" viewBox="0 0 40 40" fill="none" xmlns="http://www.w3.org/2000/svg">
<g clip-path="url(#clip0_169_587)">
<path d="M28.3334 5.83342C28.3334 5.61241 28.2456 5.40045 28.0893 5.24417C27.933 5.08789 27.7211 5.00009 27.5001 5.00009H23.3334C21.2353 4.89557 19.1811 5.62574 17.6196 7.03106C16.0581 8.43637 15.1164 10.4026 15.0001 12.5001V17.0001H10.8334C10.6124 17.0001 10.4004 17.0879 10.2441 17.2442C10.0879 17.4004 10.0001 17.6124 10.0001 17.8334V22.1668C10.0001 22.3878 10.0879 22.5997 10.2441 22.756C10.4004 22.9123 10.6124 23.0001 10.8334 23.0001H15.0001V34.1668C15.0001 34.3878 15.0879 34.5997 15.2441 34.756C15.4004 34.9123 15.6124 35.0001 15.8334 35.0001H20.8334C21.0544 35.0001 21.2664 34.9123 21.4227 34.756C21.5789 34.5997 21.6667 34.3878 21.6667 34.1668V23.0001H26.0334C26.2187 23.0028 26.3996 22.9436 26.5475 22.8319C26.6954 22.7202 26.8019 22.5624 26.8501 22.3834L28.0501 18.0501C28.0832 17.927 28.0877 17.7979 28.0631 17.6727C28.0385 17.5476 27.9855 17.4298 27.9083 17.3284C27.831 17.2269 27.7314 17.1446 27.6173 17.0877C27.5032 17.0308 27.3776 17.0008 27.2501 17.0001H21.6667V12.5001C21.7082 12.0876 21.9019 11.7053 22.2101 11.4279C22.5183 11.1505 22.9188 10.998 23.3334 11.0001H27.5001C27.7211 11.0001 27.933 10.9123 28.0893 10.756C28.2456 10.5997 28.3334 10.3878 28.3334 10.1668V5.83342Z" fill="#A93B59"/>
</g>
<defs>
<clipPath id="clip0_169_587">
<rect width="40" height="40" fill="white"/>
</clipPath>
</defs>
</svg>
