<svg width="28" height="28" viewBox="0 0 28 28" fill="none" xmlns="http://www.w3.org/2000/svg">
<path d="M14 13.5335C14.923 13.5335 15.8252 13.2598 16.5926 12.7471C17.3601 12.2343 17.9582 11.5054 18.3114 10.6527C18.6646 9.8 18.757 8.86169 18.577 7.95644C18.3969 7.0512 17.9525 6.21968 17.2998 5.56703C16.6472 4.91439 15.8156 4.46993 14.9104 4.28987C14.0052 4.1098 13.0668 4.20222 12.2141 4.55543C11.3614 4.90864 10.6326 5.50677 10.1198 6.2742C9.60701 7.04163 9.33331 7.94389 9.33331 8.86686C9.33331 10.1045 9.82498 11.2915 10.7001 12.1667C11.5753 13.0419 12.7623 13.5335 14 13.5335Z" fill="#6F6567"/>
<path d="M21 25.2C21.3094 25.2 21.6062 25.0771 21.825 24.8583C22.0437 24.6395 22.1667 24.3428 22.1667 24.0334C22.1667 21.8674 21.3062 19.7902 19.7747 18.2587C18.2432 16.7271 16.1659 15.8667 14 15.8667C11.8341 15.8667 9.75684 16.7271 8.22529 18.2587C6.69374 19.7902 5.83333 21.8674 5.83333 24.0334C5.83333 24.3428 5.95624 24.6395 6.17504 24.8583C6.39383 25.0771 6.69058 25.2 6.99999 25.2H21Z" fill="#6F6567"/>
</svg>
