<svg width="24" height="24" viewBox="0 0 24 24" fill="none" xmlns="http://www.w3.org/2000/svg">
<path d="M18.4431 23.9998C13.5536 23.9934 8.86624 22.0444 5.40886 18.5802C1.95148 15.1159 0.00633762 10.4192 0 5.52006C0 4.05608 0.580409 2.65207 1.61354 1.61688C2.64668 0.581699 4.04791 0.000137152 5.50898 0.000137152C5.81837 -0.00222417 6.12724 0.0259108 6.43114 0.0841358C6.72492 0.127696 7.01373 0.200042 7.29341 0.300133C7.49012 0.369287 7.6654 0.48869 7.80193 0.646534C7.93845 0.804379 8.0315 0.995197 8.07185 1.20012L9.71257 8.40001C9.7568 8.59545 9.75147 8.79886 9.69708 8.9917C9.64269 9.18455 9.54097 9.36067 9.4012 9.504C9.24551 9.672 9.23353 9.684 7.76048 10.452C8.94011 13.045 11.0098 15.1273 13.5928 16.3199C14.3713 14.8319 14.3832 14.8199 14.5509 14.6639C14.6939 14.5239 14.8697 14.4219 15.0622 14.3674C15.2546 14.313 15.4576 14.3076 15.6527 14.3519L22.8383 15.9959C23.0363 16.0419 23.2193 16.1377 23.3702 16.2741C23.521 16.4106 23.6347 16.5833 23.7006 16.7759C23.8017 17.0607 23.8778 17.3538 23.9281 17.6519C23.9763 17.9535 24.0004 18.2584 24 18.5639C23.9779 20.0216 23.3812 21.4113 22.3401 22.4298C21.299 23.4482 19.898 24.0126 18.4431 23.9998Z" fill="#827679"/>
</svg>
