<svg width="48" height="48" viewBox="0 0 48 48" fill="none" xmlns="http://www.w3.org/2000/svg">
<path d="M19.72 35.9998C19.4458 35.9989 19.1746 35.9417 18.9235 35.8316C18.6723 35.7215 18.4465 35.5609 18.26 35.3598L8.53999 25.0198C8.17664 24.6326 7.982 24.1169 7.99888 23.5862C8.01575 23.0555 8.24277 22.5532 8.62999 22.1898C9.0172 21.8265 9.5329 21.6318 10.0636 21.6487C10.5944 21.6656 11.0966 21.8926 11.46 22.2798L19.7 31.0598L36.52 12.6598C36.6907 12.4473 36.903 12.2719 37.144 12.1443C37.3849 12.0168 37.6494 11.9399 37.9212 11.9184C38.1929 11.8968 38.4662 11.931 38.7243 12.0189C38.9823 12.1068 39.2197 12.2465 39.4218 12.4295C39.6238 12.6125 39.7864 12.8348 39.8994 13.0829C40.0124 13.331 40.0735 13.5995 40.079 13.8721C40.0845 14.1447 40.0341 14.4154 39.9311 14.6678C39.8281 14.9202 39.6746 15.1489 39.48 15.3398L21.2 35.3398C21.0153 35.5445 20.7902 35.7088 20.539 35.8224C20.2877 35.936 20.0157 35.9964 19.74 35.9998H19.72Z" fill="#822740"/>
</svg>
