<svg width="40" height="40" viewBox="0 0 40 40" fill="none" xmlns="http://www.w3.org/2000/svg">
<g clip-path="url(#clip0_135_553)">
<path d="M29 36.667C22.1955 36.6582 15.6722 33.9512 10.8606 29.1397C6.04912 24.3282 3.34213 17.8049 3.33331 11.0004C3.33331 8.96703 4.14105 7.01698 5.57883 5.5792C7.01661 4.14142 8.96665 3.33369 11 3.33369C11.4305 3.33041 11.8604 3.36948 12.2833 3.45035C12.6922 3.51085 13.0941 3.61134 13.4833 3.75035C13.7571 3.8464 14.001 4.01224 14.191 4.23147C14.381 4.45071 14.5105 4.71573 14.5666 5.00035L16.85 15.0004C16.9115 15.2718 16.9041 15.5543 16.8284 15.8222C16.7527 16.09 16.6112 16.3346 16.4166 16.5337C16.2 16.767 16.1833 16.7837 14.1333 17.8504C15.775 21.4518 18.6553 24.344 22.25 26.0004C23.3333 23.9337 23.35 23.917 23.5833 23.7004C23.7824 23.5058 24.027 23.3643 24.2948 23.2886C24.5627 23.2129 24.8452 23.2055 25.1166 23.267L35.1166 25.5504C35.3922 25.6143 35.6469 25.7473 35.8568 25.9368C36.0667 26.1263 36.225 26.3661 36.3167 26.6337C36.4573 27.0293 36.5633 27.4364 36.6333 27.8504C36.7004 28.2692 36.7338 28.6928 36.7333 29.117C36.7026 31.1417 35.8721 33.0719 34.4233 34.4864C32.9744 35.901 31.0248 36.6849 29 36.667Z" fill="#A93B59"/>
</g>
<defs>
<clipPath id="clip0_135_553">
<rect width="40" height="40" fill="white"/>
</clipPath>
</defs>
</svg>
